<svg xmlns="http://www.w3.org/2000/svg" width="105.57" height="41.307"><defs><clipPath id="a"><path data-name="Rectangle 1" fill="#fff" d="M0 0h105.57v41.307H0z"/></clipPath></defs><g data-name="Group 1" clip-path="url(#a)" fill="#fff"><path data-name="Path 1" d="M47.588 40.083a3.166 3.166 0 0 0 1.445 1.045 3.412 3.412 0 0 1-1.446-1.045Z"/><path data-name="Path 2" d="M47.549 40.04c.013.016.027.029.04.043-.02-.024-.04-.043-.06-.069a.251.251 0 0 1 .02.026"/><path data-name="Path 3" d="M47.041 39.274a4.238 4.238 0 0 0 .44.675 4.3 4.3 0 0 1-.251-.37Z"/><path data-name="Path 4" d="M104.783 24.594a12.554 12.554 0 0 0-2.137-3.848 10.178 10.178 0 0 0-3.184-2.58 8.427 8.427 0 0 0-3.937-.953H54.07a2.565 2.565 0 0 1-1.986-1 3.475 3.475 0 0 1-.863-2.355 3.428 3.428 0 0 1 .863-2.4 2.618 2.618 0 0 1 1.986-.952h45.653a3.2 3.2 0 0 0 2.548-1.268 5.047 5.047 0 0 0 0-6.159 3.2 3.2 0 0 0-2.548-1.267h-45.5a8.2 8.2 0 0 0-3.9.951 10.349 10.349 0 0 0-3.149 2.581 12.682 12.682 0 0 0-2.135 3.805 14.456 14.456 0 0 0 0 9.418 12.644 12.644 0 0 0 2.135 3.8 10.344 10.344 0 0 0 3.149 2.583 8.223 8.223 0 0 0 3.9.95h41.6a2.47 2.47 0 0 1 1.95 1 3.707 3.707 0 0 1 .827 2.45 3.407 3.407 0 0 1-.824 2.312 2.507 2.507 0 0 1-1.95.95h-43.98L34.412 4.438a9.346 9.346 0 0 0-3.3-3.261 8.347 8.347 0 0 0-8.769.136 10.3 10.3 0 0 0-3.374 3.4L.756 34.327A4.253 4.253 0 0 0 0 36.953a4.659 4.659 0 0 0 1.049 3.08A3.192 3.192 0 0 0 3.6 41.3a3.294 3.294 0 0 0 2.771-1.631l17.623-28.257a11.087 11.087 0 0 1 1.236-1.585 2.229 2.229 0 0 1 1.612-.861 2.227 2.227 0 0 1 1.612.861 18.421 18.421 0 0 1 1.312 1.585l17.277 27.862.188.305c.08.132.163.254.25.37.016.02.029.043.049.065l.059.068a3.426 3.426 0 0 0 1.445 1.046 2.231 2.231 0 0 0 .287.084c.073.019.147.032.222.045.038 0 .077.014.119.019a3.172 3.172 0 0 0 .432.029h45.431a8.767 8.767 0 0 0 3.935-.905 9.61 9.61 0 0 0 3.185-2.536 12.587 12.587 0 0 0 2.138-3.8 13.694 13.694 0 0 0 .786-4.71 14.124 14.124 0 0 0-.786-4.754M62.021 38.279a.771.771 0 0 1-.314.624 1.206 1.206 0 0 1-.786.254 1.416 1.416 0 0 1-.315-.035 1.314 1.314 0 0 1-.282-.1l-5.251-2.539c-.145-.068-.265-.119-.361-.16a.673.673 0 0 0-.236-.06.21.21 0 0 0-.218.174 2.072 2.072 0 0 0-.046.5v1.787a.374.374 0 0 1-.16.307.663.663 0 0 1-.779 0 .378.378 0 0 1-.161-.307v-2.638a.773.773 0 0 1 .316-.625 1.205 1.205 0 0 1 .784-.255 1.433 1.433 0 0 1 .316.037 1.211 1.211 0 0 1 .279.1l5.253 2.538c.144.067.265.118.361.158a.636.636 0 0 0 .236.059.207.207 0 0 0 .218-.171 2.075 2.075 0 0 0 .046-.5v-1.785a.377.377 0 0 1 .16-.308.655.655 0 0 1 .78 0 .384.384 0 0 1 .16.308Zm18.271.671a.614.614 0 0 1-.39.126h-7.28a1.568 1.568 0 0 1-.5-.085 1.533 1.533 0 0 1-.449-.24 1.323 1.323 0 0 1-.32-.372.957.957 0 0 1-.125-.489v-.816a.32.32 0 0 1 .177-.327 1.4 1.4 0 0 1 .555-.081h7.694a.609.609 0 0 1 .39.127.376.376 0 0 1 .1.523.366.366 0 0 1-.1.1.609.609 0 0 1-.39.127h-7.329v.445a.19.19 0 0 0 .1.157.432.432 0 0 0 .259.069H79.9a.605.605 0 0 1 .389.128.373.373 0 0 1 .1.519.366.366 0 0 1-.1.1Zm0-3.083A.6.6 0 0 1 79.9 36h-8.125a.6.6 0 0 1-.39-.129.376.376 0 0 1-.091-.523.384.384 0 0 1 .091-.091.608.608 0 0 1 .39-.128H79.9a.608.608 0 0 1 .39.128.372.372 0 0 1 .1.517.381.381 0 0 1-.1.1m16.479.081a.605.605 0 0 1-.389.128h-3.391v2.647a.381.381 0 0 1-.161.308.663.663 0 0 1-.779 0 .375.375 0 0 1-.16-.308v-2.654h-3.44a.635.635 0 0 1-.356-.141.372.372 0 0 1-.147-.295.378.378 0 0 1 .16-.307.6.6 0 0 1 .39-.13h7.888a.608.608 0 0 1 .39.13.375.375 0 0 1 .093.521.383.383 0 0 1-.093.093Z"/><path data-name="Path 5" d="M26.931 34.486a2.712 2.712 0 0 0-2.013.838 2.964 2.964 0 0 0 0 4.1 2.839 2.839 0 0 0 4.016.01l.01-.01a2.967 2.967 0 0 0 0-4.1 2.71 2.71 0 0 0-2.012-.838"/><path data-name="Path 6" d="M26.931 34.486a2.712 2.712 0 0 0-2.013.838 2.964 2.964 0 0 0 0 4.1 2.839 2.839 0 0 0 4.016.01l.01-.01a2.967 2.967 0 0 0 0-4.1 2.71 2.71 0 0 0-2.013-.838Z"/></g></svg>